<svg width="40" height="41" viewBox="0 0 40 41" fill="none"
    xmlns="http://www.w3.org/2000/svg">
    <path opacity="0.5" d="M33.9657 14.6595C32.2189 13.5813 29.9157 13.7782 28.8532 13.9595V12.722C28.8532 12.722 29.5907 12.4501 29.5126 11.5595C29.4345 10.6688 27.3814 10.5907 27.3814 10.5907L8.70948 10.5532C8.70948 10.5532 7.74073 10.7095 7.74073 11.6001C7.74073 12.4907 8.43761 12.6438 8.43761 12.6438C8.43761 12.6438 8.20636 30.9282 8.12823 31.4313C8.05011 31.9345 7.50948 33.9501 7.35323 34.6063C7.19698 35.2657 7.35323 35.6907 7.85636 36.1157C8.35948 36.5407 11.5376 39.1376 18.3939 39.3313C25.0939 39.522 28.1939 36.9688 28.8126 36.4251C29.1939 36.0938 29.4314 35.4563 29.3157 34.9907C29.2001 34.5251 28.8907 32.1626 28.8907 32.1626L28.8595 30.8126C29.372 30.772 30.0126 30.6845 30.5939 30.497C32.5314 29.8782 34.8282 28.1532 35.5907 26.1188C36.6407 23.3376 37.3782 16.7688 33.9657 14.6595ZM31.6032 26.0095C30.6657 26.9657 29.5439 27.1345 28.8532 27.1657V17.5438C29.5595 17.4095 30.9095 17.2251 31.7189 17.5657C32.4564 17.8751 32.8814 18.3782 33.1126 19.5032C33.2501 20.1501 33.5032 24.072 31.6032 26.0095Z" fill="white"/>
    <path opacity="0.7" d="M33.9657 14.6595C32.2189 13.5813 29.9157 13.7782 28.8532 13.9595V12.722C28.8532 12.722 29.5907 12.4501 29.5126 11.5595C29.4345 10.6688 27.3814 10.5907 27.3814 10.5907L8.70948 10.5532C8.70948 10.5532 7.74073 10.7095 7.74073 11.6001C7.74073 12.4907 8.43761 12.6438 8.43761 12.6438C8.43761 12.6438 8.20636 30.9282 8.12823 31.4313C8.05011 31.9345 7.50948 33.9501 7.35323 34.6063C7.19698 35.2657 7.35323 35.6907 7.85636 36.1157C8.35948 36.5407 11.5376 39.1376 18.3939 39.3313C25.0939 39.522 28.1939 36.9688 28.8126 36.4251C29.1939 36.0938 29.4314 35.4563 29.3157 34.9907C29.2001 34.5251 28.8907 32.1626 28.8907 32.1626L28.8595 30.8126C29.372 30.772 30.0126 30.6845 30.5939 30.497C32.5314 29.8782 34.8282 28.1532 35.5907 26.1188C36.6407 23.3376 37.3782 16.7688 33.9657 14.6595ZM31.6032 26.0095C30.6657 26.9657 29.5439 27.1345 28.8532 27.1657V17.5438C29.5595 17.4095 30.9095 17.2251 31.7189 17.5657C32.4564 17.8751 32.8814 18.3782 33.1126 19.5032C33.2501 20.1501 33.5032 24.072 31.6032 26.0095Z" fill="#E0E0E0"/>
    <path d="M9.0124 30.1313L8.86865 34.1782L10.8562 36.1657L11.4968 36.5907L11.5218 32.9938L10.1937 31.8595L9.0124 30.1313Z" fill="white"/>
    <path d="M8.27808 34.675C8.30308 34.8406 9.88745 36.5219 13.0125 37.5625C16.1374 38.6031 19.9718 38.65 23.5437 37.8219C27.1156 36.9938 28.4656 34.8625 28.4656 34.8625C28.4656 34.8625 28.5374 34.4125 28.1343 34.225C27.7312 34.0375 26.7624 34.0125 26.1218 34.675C25.4937 35.325 25.4343 36.3563 25.4343 36.3563C25.4343 36.3563 24.7468 35.0313 23.0906 35.3625C21.3687 35.7063 20.8187 37.4469 20.8187 37.4469C20.8187 37.4469 20.1093 35.9563 18.4031 35.9313C16.7 35.9063 15.7531 37.6813 15.7531 37.6813C15.7531 37.6813 16.0375 35.6469 13.9312 35.0781C11.9375 34.5406 11.1375 36.1906 11.1375 36.1906C11.1375 36.1906 11.0531 34.5656 10.1187 34.0125C8.84683 33.2531 8.27808 34.675 8.27808 34.675Z" fill="#D5D5D5"/>
    <path d="M9.25937 11.1313L9.22813 14.2126L9.21875 15.3907L20.7094 22.3438L27.775 14.5751L27.7813 11.2595L9.25937 11.1313Z" fill="#EBC990"/>
    <path d="M9.35949 29.3562C9.35949 29.3562 8.75636 29.3906 8.89699 30.1781C8.98136 30.6343 10.722 35.4718 18.5907 35.4C26.172 35.3312 27.8689 30.6062 27.9251 30.1781C28.0314 29.3562 26.9939 29.6406 26.9939 29.6406L9.35949 29.3562Z" fill="#9D9D9C"/>
    <path d="M18.4126 16.3031C12.7251 16.4812 9.22199 14.3718 9.22199 14.3718C9.22199 14.3718 9.12512 27.9875 9.15012 28.8218C9.18449 30.0375 10.6876 34.9031 18.4501 34.8312C26.2126 34.7593 27.822 29.9312 27.822 28.6781C27.822 27.9968 27.7876 14.3718 27.7876 14.3718C27.7876 14.3718 25.3126 16.0843 18.4126 16.3031Z" fill="url(#paint0_radial_183_542)"/>
    <path d="M28.6657 15.2063C28.7407 16.1032 30.0844 15.5125 31.4126 15.5407C32.8657 15.5719 33.7407 16.1782 33.8157 15.3407C33.8907 14.4907 32.3938 14.275 31.1938 14.2125C30.3688 14.1688 28.5938 14.3407 28.6657 15.2063Z" fill="white"/>
    <path d="M28.7813 16.8812C28.5876 17.0906 28.7469 18.1969 28.8469 18.2719C29.0313 18.4156 30.1657 17.7437 31.3594 18.1406C33.3032 18.7844 33.0657 20.0719 33.1813 20.0469C33.3032 20.0219 33.6094 17.8781 31.9782 16.9937C30.7501 16.3312 28.9751 16.6719 28.7813 16.8812Z" fill="#9E9E9E"/>
    <path d="M28.9563 27.7094C28.7282 27.9094 28.8282 28.6438 29.5813 28.6313C30.4313 28.6157 31.622 28.3469 32.6001 27.1875C33.297 26.3625 33.4501 24.8625 33.1813 24.8625C32.9126 24.8625 32.4157 26.3938 31.0407 27.1157C29.7782 27.7782 29.197 27.4969 28.9563 27.7094Z" fill="white"/>
    <path d="M28.8032 29.7374L28.8657 31.1937C28.8657 31.1937 31.2001 31.3249 33.547 29.4374C36.422 27.1281 36.3813 22.6874 36.3688 22.6812C36.3376 22.6656 35.447 26.5687 32.9376 28.3749C30.9126 29.8343 28.8032 29.7374 28.8032 29.7374Z" fill="#9E9E9E"/>
    <path d="M19.5907 19.8406C19.2688 20.3531 19.4063 20.8562 19.6626 21.0031C19.9782 21.1843 20.4594 20.9749 20.6907 20.4968C20.8938 20.0781 20.8938 19.6187 20.5126 19.4406C20.2126 19.2999 19.8719 19.3906 19.5907 19.8406ZM16.9844 22.9781C16.6501 23.2437 16.7813 23.6531 17.0032 23.9437C17.2407 24.2562 17.6938 24.3874 17.9438 24.1656C18.1844 23.9499 18.1657 23.4999 17.9094 23.1718C17.6938 22.8999 17.2876 22.7374 16.9844 22.9781ZM16.5969 25.9093C15.9751 25.9281 15.9063 26.5374 15.9501 26.7968C15.9813 26.9749 16.1438 27.3624 16.7313 27.3468C17.3188 27.3312 17.3876 26.7093 17.3532 26.4874C17.3126 26.2656 17.1469 25.8937 16.5969 25.9093ZM18.5626 26.3718C18.2594 26.3812 17.9751 26.6593 18.0563 27.1062C18.1376 27.5406 18.4282 27.6468 18.6782 27.6124C18.9157 27.5781 19.1657 27.3468 19.1313 26.9468C19.0938 26.5499 18.8282 26.3624 18.5626 26.3718ZM19.8438 28.5499C19.4751 28.5499 19.2344 28.9437 19.2469 29.3874C19.2594 29.8312 19.5344 30.3749 20.0719 30.3124C20.4532 30.2687 20.6563 29.6406 20.5657 29.2718C20.4782 28.9031 20.2251 28.5499 19.8438 28.5499ZM17.6844 30.6031C17.2657 30.7281 17.4001 31.4468 17.4563 31.6187C17.5313 31.8468 17.7344 32.2781 18.1938 32.1781C18.6532 32.0781 18.5626 31.4687 18.3969 31.0874C18.2657 30.7843 18.0657 30.4906 17.6844 30.6031Z" fill="#FFE265"/>
    <path d="M9.30934 7.61255C9.20934 7.71255 7.35309 7.95943 7.40309 9.6438C7.45309 11.3282 9.26247 11.8969 9.97809 12.1469C10.6968 12.3938 12.2812 12.6657 12.7531 14.2282C13.225 15.7876 13.3 16.5251 14.0406 16.7313C14.9312 16.9782 15.5312 15.6938 15.9718 14.9719C16.4437 14.2032 16.8875 13.5344 17.6312 13.4376C18.375 13.3407 22.6593 13.4376 25.1375 12.8188C27.6156 12.2001 29.6281 10.7907 29.5218 8.7313C29.375 5.87818 25.4375 6.17505 25.4375 6.17505C25.4375 6.17505 23.8875 2.29068 19.7375 1.79068C14.6093 1.17193 13.4468 4.39068 13.4468 4.39068C13.4468 4.39068 11.5531 3.88443 10.1531 5.15943C9.00622 6.20318 9.30934 7.61255 9.30934 7.61255Z" fill="#FADFB1"/>
    <path d="M13.9657 5.85314C13.7251 6.00939 12.2501 4.97502 11.1282 6.14064C10.1813 7.12814 10.8938 8.05627 10.5969 8.42814C10.1907 8.93439 8.74381 8.73752 8.84381 9.80002C8.94381 10.8656 10.3969 10.975 11.1501 11.1969C11.8594 11.4031 12.5719 11.7125 13.2532 12.3094C13.9626 12.9313 13.7188 14.5469 14.4469 14.6969C15.1657 14.8469 15.3094 13.2469 16.2282 12.5531C17.1438 11.8594 17.7844 11.925 20.1126 11.7969C22.4376 11.6688 28.2313 11.5469 28.0157 8.92189C27.8438 6.81564 25.3657 7.60939 24.6219 7.23752C23.8782 6.86564 22.9969 3.60002 19.3938 3.10002C15.6501 2.58439 14.3657 5.59689 13.9657 5.85314ZM10.1563 13.825C10.0501 14.4219 9.98756 28.2813 9.98756 28.2813C9.98756 28.2813 9.92506 29.3625 10.8594 29.4907C11.7313 29.6125 12.0469 28.7875 12.0688 28.2313C12.0938 27.675 12.2126 15.2531 12.1907 14.6969C12.1688 14.1406 11.6344 13.5094 11.1001 13.3406C10.5657 13.1719 10.2282 13.4156 10.1563 13.825Z" fill="white"/>
    <defs>
        <radialGradient id="paint0_radial_183_542" cx="0" cy="0" r="1" gradientUnits="userSpaceOnUse" gradientTransform="translate(18.853 4.70724) rotate(90.9855) scale(30.0718 22.532)">
            <stop offset="0.594" stop-color="#DB8116"/>
            <stop offset="0.896" stop-color="#FDB408"/>
        </radialGradient>
    </defs>
</svg>