<svg width="40" height="40" viewBox="0 0 40 40" fill="none" xmlns="http://www.w3.org/2000/svg">
<g id="noto:beer-mug">
<path id="Vector" opacity="0.5" d="M33.9655 14.159C32.2186 13.0809 29.9155 13.2777 28.853 13.459V12.2215C28.853 12.2215 29.5905 11.9496 29.5124 11.059C29.4342 10.1684 27.3811 10.0902 27.3811 10.0902L8.70924 10.0527C8.70924 10.0527 7.74049 10.209 7.74049 11.0996C7.74049 11.9902 8.43736 12.1434 8.43736 12.1434C8.43736 12.1434 8.20611 30.4277 8.12799 30.9309C8.04986 31.434 7.50924 33.4496 7.35299 34.1058C7.19674 34.7652 7.35299 35.1902 7.85611 35.6152C8.35924 36.0402 11.5374 38.6371 18.3936 38.8308C25.0936 39.0215 28.1936 36.4683 28.8124 35.9246C29.1936 35.5933 29.4311 34.9558 29.3155 34.4902C29.1999 34.0246 28.8905 31.6621 28.8905 31.6621L28.8592 30.3121C29.3717 30.2715 30.0124 30.184 30.5936 29.9965C32.5311 29.3777 34.828 27.6527 35.5905 25.6184C36.6405 22.8371 37.378 16.2684 33.9655 14.159ZM31.603 25.509C30.6655 26.4652 29.5436 26.634 28.853 26.6652V17.0434C29.5592 16.909 30.9092 16.7246 31.7186 17.0652C32.4561 17.3746 32.8811 17.8777 33.1124 19.0027C33.2499 19.6496 33.503 23.5715 31.603 25.509Z" fill="white"/>
<path id="Vector_2" opacity="0.7" d="M33.9655 14.159C32.2186 13.0809 29.9155 13.2777 28.853 13.459V12.2215C28.853 12.2215 29.5905 11.9496 29.5124 11.059C29.4342 10.1684 27.3811 10.0902 27.3811 10.0902L8.70924 10.0527C8.70924 10.0527 7.74049 10.209 7.74049 11.0996C7.74049 11.9902 8.43736 12.1434 8.43736 12.1434C8.43736 12.1434 8.20611 30.4277 8.12799 30.9309C8.04986 31.434 7.50924 33.4496 7.35299 34.1058C7.19674 34.7652 7.35299 35.1902 7.85611 35.6152C8.35924 36.0402 11.5374 38.6371 18.3936 38.8308C25.0936 39.0215 28.1936 36.4683 28.8124 35.9246C29.1936 35.5933 29.4311 34.9558 29.3155 34.4902C29.1999 34.0246 28.8905 31.6621 28.8905 31.6621L28.8592 30.3121C29.3717 30.2715 30.0124 30.184 30.5936 29.9965C32.5311 29.3777 34.828 27.6527 35.5905 25.6184C36.6405 22.8371 37.378 16.2684 33.9655 14.159ZM31.603 25.509C30.6655 26.4652 29.5436 26.634 28.853 26.6652V17.0434C29.5592 16.909 30.9092 16.7246 31.7186 17.0652C32.4561 17.3746 32.8811 17.8777 33.1124 19.0027C33.2499 19.6496 33.503 23.5715 31.603 25.509Z" fill="#E0E0E0"/>
<path id="Vector_3" d="M9.0124 29.6309L8.86865 33.6777L10.8562 35.6652L11.4968 36.0902L11.5218 32.4934L10.1937 31.359L9.0124 29.6309Z" fill="white"/>
<path id="Vector_4" d="M8.27832 34.1748C8.30332 34.3404 9.88769 36.0216 13.0127 37.0623C16.1377 38.1029 19.9721 38.1498 23.5439 37.3216C27.1158 36.4935 28.4658 34.3623 28.4658 34.3623C28.4658 34.3623 28.5377 33.9123 28.1346 33.7248C27.7314 33.5373 26.7627 33.5123 26.1221 34.1748C25.4939 34.8248 25.4346 35.856 25.4346 35.856C25.4346 35.856 24.7471 34.531 23.0908 34.8623C21.3689 35.206 20.8189 36.9466 20.8189 36.9466C20.8189 36.9466 20.1096 35.456 18.4033 35.431C16.7002 35.406 15.7533 37.181 15.7533 37.181C15.7533 37.181 16.0377 35.1466 13.9314 34.5779C11.9377 34.0404 11.1377 35.6904 11.1377 35.6904C11.1377 35.6904 11.0533 34.0654 10.1189 33.5123C8.84707 32.7529 8.27832 34.1748 8.27832 34.1748Z" fill="#D5D5D5"/>
<path id="Vector_5" d="M9.25937 10.6309L9.22813 13.7121L9.21875 14.8902L20.7094 21.8434L27.775 14.0746L27.7813 10.759L9.25937 10.6309Z" fill="#EBC990"/>
<path id="Vector_6" d="M9.35925 28.8564C9.35925 28.8564 8.75612 28.8908 8.89675 29.6783C8.98112 30.1346 10.7217 34.9721 18.5905 34.9002C26.1718 34.8314 27.8686 30.1064 27.9249 29.6783C28.0311 28.8564 26.9936 29.1408 26.9936 29.1408L9.35925 28.8564Z" fill="#9D9D9C"/>
<path id="Vector_7" d="M18.4126 15.8033C12.7251 15.9814 9.22199 13.8721 9.22199 13.8721C9.22199 13.8721 9.12512 27.4877 9.15012 28.3221C9.18449 29.5377 10.6876 34.4033 18.4501 34.3314C26.2126 34.2596 27.822 29.4314 27.822 28.1783C27.822 27.4971 27.7876 13.8721 27.7876 13.8721C27.7876 13.8721 25.3126 15.5846 18.4126 15.8033Z" fill="url(#paint0_radial_77_635)"/>
<path id="Vector_8" d="M28.6657 14.706C28.7407 15.6029 30.0844 15.0123 31.4126 15.0404C32.8657 15.0717 33.7407 15.6779 33.8157 14.8404C33.8907 13.9904 32.3938 13.7748 31.1938 13.7123C30.3688 13.6685 28.5938 13.8404 28.6657 14.706Z" fill="white"/>
<path id="Vector_9" d="M28.7813 16.3815C28.5876 16.5909 28.7469 17.6971 28.8469 17.7721C29.0313 17.9159 30.1657 17.244 31.3594 17.6409C33.3032 18.2846 33.0657 19.5721 33.1813 19.5471C33.3032 19.5221 33.6094 17.3784 31.9782 16.494C30.7501 15.8315 28.9751 16.1721 28.7813 16.3815Z" fill="#9E9E9E"/>
<path id="Vector_10" d="M28.9561 27.2092C28.728 27.4092 28.828 28.1436 29.5811 28.1311C30.4311 28.1154 31.6217 27.8467 32.5998 26.6873C33.2967 25.8623 33.4498 24.3623 33.1811 24.3623C32.9123 24.3623 32.4155 25.8936 31.0405 26.6154C29.778 27.2779 29.1967 26.9967 28.9561 27.2092Z" fill="white"/>
<path id="Vector_11" d="M28.8032 29.2379L28.8657 30.6942C28.8657 30.6942 31.2001 30.8254 33.547 28.9379C36.422 26.6286 36.3813 22.1879 36.3688 22.1817C36.3376 22.1661 35.447 26.0692 32.9376 27.8754C30.9126 29.3348 28.8032 29.2379 28.8032 29.2379Z" fill="#9E9E9E"/>
<path id="Vector_12" d="M19.5907 19.3408C19.2688 19.8533 19.4063 20.3564 19.6626 20.5033C19.9782 20.6846 20.4594 20.4752 20.6907 19.9971C20.8938 19.5783 20.8938 19.1189 20.5126 18.9408C20.2126 18.8002 19.8719 18.8908 19.5907 19.3408ZM16.9844 22.4783C16.6501 22.7439 16.7813 23.1533 17.0032 23.4439C17.2407 23.7564 17.6938 23.8877 17.9438 23.6658C18.1844 23.4502 18.1657 23.0002 17.9094 22.6721C17.6938 22.4002 17.2876 22.2377 16.9844 22.4783ZM16.5969 25.4096C15.9751 25.4283 15.9063 26.0377 15.9501 26.2971C15.9813 26.4752 16.1438 26.8627 16.7313 26.8471C17.3188 26.8314 17.3876 26.2096 17.3532 25.9877C17.3126 25.7658 17.1469 25.3939 16.5969 25.4096ZM18.5626 25.8721C18.2594 25.8814 17.9751 26.1596 18.0563 26.6064C18.1376 27.0408 18.4282 27.1471 18.6782 27.1127C18.9157 27.0783 19.1657 26.8471 19.1313 26.4471C19.0938 26.0502 18.8282 25.8627 18.5626 25.8721ZM19.8438 28.0502C19.4751 28.0502 19.2344 28.4439 19.2469 28.8877C19.2594 29.3314 19.5344 29.8752 20.0719 29.8127C20.4532 29.7689 20.6563 29.1408 20.5657 28.7721C20.4782 28.4033 20.2251 28.0502 19.8438 28.0502ZM17.6844 30.1033C17.2657 30.2283 17.4001 30.9471 17.4563 31.1189C17.5313 31.3471 17.7344 31.7783 18.1938 31.6783C18.6532 31.5783 18.5626 30.9689 18.3969 30.5877C18.2657 30.2846 18.0657 29.9908 17.6844 30.1033Z" fill="#FFE265"/>
<path id="Vector_13" d="M9.30959 7.1128C9.20959 7.2128 7.35334 7.45967 7.40334 9.14405C7.45334 10.8284 9.26271 11.3972 9.97834 11.6472C10.6971 11.894 12.2815 12.1659 12.7533 13.7284C13.2252 15.2878 13.3002 16.0253 14.0408 16.2315C14.9315 16.4784 15.5315 15.194 15.9721 14.4722C16.444 13.7034 16.8877 13.0347 17.6315 12.9378C18.3752 12.8409 22.6596 12.9378 25.1377 12.319C27.6158 11.7003 29.6283 10.2909 29.5221 8.23155C29.3752 5.37842 25.4377 5.6753 25.4377 5.6753C25.4377 5.6753 23.8877 1.79092 19.7377 1.29092C14.6096 0.672171 13.4471 3.89092 13.4471 3.89092C13.4471 3.89092 11.5533 3.38467 10.1533 4.65967C9.00646 5.70342 9.30959 7.1128 9.30959 7.1128Z" fill="#FADFB1"/>
<path id="Vector_14" d="M13.9657 5.35339C13.7251 5.50964 12.2501 4.47526 11.1282 5.64089C10.1813 6.62839 10.8938 7.55651 10.5969 7.92839C10.1907 8.43464 8.74381 8.23776 8.84381 9.30026C8.94381 10.3659 10.3969 10.4753 11.1501 10.6971C11.8594 10.9034 12.5719 11.2128 13.2532 11.8096C13.9626 12.4315 13.7188 14.0471 14.4469 14.1971C15.1657 14.3471 15.3094 12.7471 16.2282 12.0534C17.1438 11.3596 17.7844 11.4253 20.1126 11.2971C22.4376 11.169 28.2313 11.0471 28.0157 8.42214C27.8438 6.31589 25.3657 7.10964 24.6219 6.73776C23.8782 6.36589 22.9969 3.10026 19.3938 2.60026C15.6501 2.08464 14.3657 5.09714 13.9657 5.35339ZM10.1563 13.3253C10.0501 13.9221 9.98756 27.7815 9.98756 27.7815C9.98756 27.7815 9.92506 28.8628 10.8594 28.9909C11.7313 29.1128 12.0469 28.2878 12.0688 27.7315C12.0938 27.1753 12.2126 14.7534 12.1907 14.1971C12.1688 13.6409 11.6344 13.0096 11.1001 12.8409C10.5657 12.6721 10.2282 12.9159 10.1563 13.3253Z" fill="white"/>
</g>
<defs>
<radialGradient id="paint0_radial_77_635" cx="0" cy="0" r="1" gradientUnits="userSpaceOnUse" gradientTransform="translate(18.853 4.20748) rotate(90.9855) scale(30.0718 22.532)">
<stop offset="0.594" stop-color="#DB8116"/>
<stop offset="0.896" stop-color="#FDB408"/>
</radialGradient>
</defs>
</svg>
